<?xml version="1.0" encoding="utf-8"?>
<!-- Generator: Adobe Illustrator 22.1.0, SVG Export Plug-In . SVG Version: 6.00 Build 0)  -->
<svg version="1.1" id="Layer_1" xmlns="http://www.w3.org/2000/svg" xmlns:xlink="http://www.w3.org/1999/xlink" x="0px" y="0px"
	 viewBox="0 0 512 512" style="enable-background:new 0 0 512 512;" xml:space="preserve">
<path d="M135.9,644.8l270,1.3c8.3,0,15-6.6,15.1-14.9l1.8-375l-300-1.5l-1.8,375C120.9,638,127.6,644.7,135.9,644.8z M152.3,344.9
	l0.3-60l60,0.3l-0.3,60L152.3,344.9z M332.3,345.7l0.3-60l60,0.3l-0.3,60L332.3,345.7z M241.9,435.3l0.3-60l60,0.3l-0.3,60
	L241.9,435.3z M151.4,524.9l0.3-60l60,0.3l-0.3,60L151.4,524.9z M331.4,525.7l0.3-60l60,0.3l-0.3,60L331.4,525.7z M241,615.3l0.3-60
	l60,0.3l-0.3,60L241,615.3z"/>
<path d="M134.3,254.8l272.8,1.3c8.4,0,15.2-6.6,15.2-14.9l1.8-374.7L121-135l-1.8,374.7C119.2,248,125.9,254.7,134.3,254.8z
	 M150.9-44.9l0.3-60l60.6,0.3l-0.3,60L150.9-44.9z M332.8-44l0.3-60l60.6,0.3l-0.3,60L332.8-44z M241.4,45.5l0.3-60l60.6,0.3
	l-0.3,60L241.4,45.5z M150,134.9l0.3-60l60.6,0.3l-0.3,60L150,134.9z M331.9,135.8l0.3-60l60.6,0.3l-0.3,60L331.9,135.8z
	 M240.5,225.3l0.3-60l60.6,0.3l-0.3,60L240.5,225.3z"/>
<path d="M132.1,1425.9l270,1.3c8.3,0,15-6.6,15.1-14.9l1.8-375l-300-1.5l-1.8,375C117.1,1419.1,123.8,1425.8,132.1,1425.9z
	 M148.5,1125.9l0.3-60l60,0.3l-0.3,60L148.5,1125.9z M328.5,1126.8l0.3-60l60,0.3l-0.3,60L328.5,1126.8z M238.1,1216.4l0.3-60
	l60,0.3l-0.3,60L238.1,1216.4z M147.6,1305.9l0.3-60l60,0.3l-0.3,60L147.6,1305.9z M327.6,1306.8l0.3-60l60,0.3l-0.3,60
	L327.6,1306.8z M237.2,1396.4l0.3-60l60,0.3l-0.3,60L237.2,1396.4z"/>
<path d="M134.3,1035.9l272.8,1.3c8.4,0,15.2-6.6,15.2-14.9l1.8-374.7L121,646.1l-1.8,374.7C119.2,1029.1,125.9,1035.8,134.3,1035.9z
	 M150.9,736.2l0.3-60l60.6,0.3l-0.3,60L150.9,736.2z M332.8,737l0.3-60l60.6,0.3l-0.3,60L332.8,737z M241.4,826.5l0.3-60l60.6,0.3
	l-0.3,60L241.4,826.5z M150,916l0.3-60l60.6,0.3l-0.3,60L150,916z M331.9,916.9l0.3-60l60.6,0.3l-0.3,60L331.9,916.9z M240.5,1006.4
	l0.3-60l60.6,0.3l-0.3,60L240.5,1006.4z"/>
<path d="M138.5-882.6l270,1.3c8.3,0,15-6.6,15.1-14.9l1.8-375l-300-1.5l-1.8,375C123.5-889.4,130.2-882.7,138.5-882.6z
	 M154.9-1182.6l0.3-60l60,0.3l-0.3,60L154.9-1182.6z M334.9-1181.7l0.3-60l60,0.3l-0.3,60L334.9-1181.7z M244.5-1092.1l0.3-60
	l60,0.3l-0.3,60L244.5-1092.1z M154.1-1002.6l0.3-60l60,0.3l-0.3,60L154.1-1002.6z M334.1-1001.7l0.3-60l60,0.3l-0.3,60
	L334.1-1001.7z M243.6-912.1l0.3-60l60,0.3l-0.3,60L243.6-912.1z"/>
<path d="M136.9-1272.6l272.8,1.3c8.4,0,15.2-6.6,15.2-14.9l1.8-374.7l-303.1-1.5l-1.8,374.7C121.8-1279.4,128.5-1272.7,136.9-1272.6
	z M153.5-1572.3l0.3-60l60.6,0.3l-0.3,60L153.5-1572.3z M335.4-1571.5l0.3-60l60.6,0.3l-0.3,60L335.4-1571.5z M244-1482l0.3-60
	l60.6,0.3l-0.3,60L244-1482z M152.6-1392.5l0.3-60l60.6,0.3l-0.3,60L152.6-1392.5z M334.5-1391.6l0.3-60l60.6,0.3l-0.3,60
	L334.5-1391.6z M243.1-1302.1l0.3-60l60.6,0.3l-0.3,60L243.1-1302.1z"/>
<path d="M134.7-101.6l270,1.3c8.3,0,15-6.6,15.1-14.9l1.8-375l-300-1.5l-1.8,375C119.7-108.4,126.4-101.6,134.7-101.6z M151.1-401.5
	l0.3-60l60,0.3l-0.3,60L151.1-401.5z M331.1-400.6l0.3-60l60,0.3l-0.3,60L331.1-400.6z M240.7-311.1l0.3-60l60,0.3l-0.3,60
	L240.7-311.1z M150.3-221.5l0.3-60l60,0.3l-0.3,60L150.3-221.5z M330.3-220.6l0.3-60l60,0.3l-0.3,60L330.3-220.6z M239.8-131.1
	l0.3-60l60,0.3l-0.3,60L239.8-131.1z"/>
<path d="M136.9-491.6l272.8,1.3c8.4,0,15.2-6.6,15.2-14.9l1.8-374.7l-303.1-1.5l-1.8,374.7C121.8-498.3,128.5-491.6,136.9-491.6z
	 M153.5-791.3l0.3-60l60.6,0.3l-0.3,60L153.5-791.3z M335.4-790.4l0.3-60l60.6,0.3l-0.3,60L335.4-790.4z M244-700.9l0.3-60l60.6,0.3
	l-0.3,60L244-700.9z M152.6-611.4l0.3-60l60.6,0.3l-0.3,60L152.6-611.4z M334.5-610.5l0.3-60l60.6,0.3l-0.3,60L334.5-610.5z
	 M243.1-521l0.3-60l60.6,0.3l-0.3,60L243.1-521z"/>
<path d="M136,3734.4l270,1.3c8.3,0,15-6.6,15.1-14.9l1.8-375l-300-1.5l-1.8,375C121,3727.6,127.7,3734.3,136,3734.4z M152.4,3434.4
	l0.3-60l60,0.3l-0.3,60L152.4,3434.4z M332.4,3435.3l0.3-60l60,0.3l-0.3,60L332.4,3435.3z M242,3524.9l0.3-60l60,0.3l-0.3,60
	L242,3524.9z M151.5,3614.4l0.3-60l60,0.3l-0.3,60L151.5,3614.4z M331.5,3615.3l0.3-60l60,0.3l-0.3,60L331.5,3615.3z M241.1,3704.9
	l0.3-60l60,0.3l-0.3,60L241.1,3704.9z"/>
<path d="M134.4,3344.4l272.8,1.3c8.4,0,15.2-6.6,15.2-14.9l1.8-374.7l-303.1-1.5l-1.8,374.7C119.3,3337.6,126,3344.3,134.4,3344.4z
	 M151,3044.7l0.3-60l60.6,0.3l-0.3,60L151,3044.7z M332.8,3045.5l0.3-60l60.6,0.3l-0.3,60L332.8,3045.5z M241.5,3135l0.3-60
	l60.6,0.3l-0.3,60L241.5,3135z M150.1,3224.5l0.3-60l60.6,0.3l-0.3,60L150.1,3224.5z M332,3225.4l0.3-60l60.6,0.3l-0.3,60
	L332,3225.4z M240.6,3314.9l0.3-60l60.6,0.3l-0.3,60L240.6,3314.9z"/>
<path d="M132.1,4515.4l270,1.3c8.3,0,15-6.6,15.1-14.9l1.8-375l-300-1.5l-1.8,375C117.2,4508.7,123.9,4515.4,132.1,4515.4z
	 M148.6,4215.5l0.3-60l60,0.3l-0.3,60L148.6,4215.5z M328.6,4216.4l0.3-60l60,0.3l-0.3,60L328.6,4216.4z M238.2,4305.9l0.3-60
	l60,0.3l-0.3,60L238.2,4305.9z M147.7,4395.5l0.3-60l60,0.3l-0.3,60L147.7,4395.5z M327.7,4396.4l0.3-60l60,0.3l-0.3,60
	L327.7,4396.4z M237.3,4485.9l0.3-60l60,0.3l-0.3,60L237.3,4485.9z"/>
<path d="M134.4,4125.4l272.8,1.3c8.4,0,15.2-6.6,15.2-14.9l1.8-374.7l-303.1-1.5l-1.8,374.7C119.3,4118.7,126,4125.4,134.4,4125.4z
	 M151,3825.7l0.3-60l60.6,0.3l-0.3,60L151,3825.7z M332.8,3826.6l0.3-60l60.6,0.3l-0.3,60L332.8,3826.6z M241.5,3916.1l0.3-60
	l60.6,0.3l-0.3,60L241.5,3916.1z M150.1,4005.6l0.3-60l60.6,0.3l-0.3,60L150.1,4005.6z M332,4006.5l0.3-60l60.6,0.3l-0.3,60
	L332,4006.5z M240.6,4096l0.3-60l60.6,0.3l-0.3,60L240.6,4096z"/>
<path d="M138.6,2206.9l270,1.3c8.3,0,15-6.6,15.1-14.9l1.8-375l-300-1.5l-1.8,375C123.6,2200.1,130.3,2206.9,138.6,2206.9z
	 M155,1907l0.3-60l60,0.3l-0.3,60L155,1907z M335,1907.9l0.3-60l60,0.3l-0.3,60L335,1907.9z M244.6,1997.4l0.3-60l60,0.3l-0.3,60
	L244.6,1997.4z M154.2,2087l0.3-60l60,0.3l-0.3,60L154.2,2087z M334.2,2087.9l0.3-60l60,0.3l-0.3,60L334.2,2087.9z M243.7,2177.4
	l0.3-60l60,0.3l-0.3,60L243.7,2177.4z"/>
<path d="M137,1816.9l272.8,1.3c8.4,0,15.2-6.6,15.2-14.9l1.8-374.7l-303.1-1.5l-1.8,374.7C121.9,1810.2,128.6,1816.9,137,1816.9z
	 M153.6,1517.2l0.3-60l60.6,0.3l-0.3,60L153.6,1517.2z M335.5,1518.1l0.3-60l60.6,0.3l-0.3,60L335.5,1518.1z M244.1,1607.6l0.3-60
	l60.6,0.3l-0.3,60L244.1,1607.6z M152.7,1697.1l0.3-60l60.6,0.3l-0.3,60L152.7,1697.1z M334.6,1698l0.3-60l60.6,0.3l-0.3,60
	L334.6,1698z M243.2,1787.5l0.3-60l60.6,0.3l-0.3,60L243.2,1787.5z"/>
<path d="M134.8,2988l270,1.3c8.3,0,15-6.6,15.1-14.9l1.8-375l-300-1.5l-1.8,375C119.8,2981.2,126.5,2988,134.8,2988z M151.2,2688.1
	l0.3-60l60,0.3l-0.3,60L151.2,2688.1z M331.2,2689l0.3-60l60,0.3l-0.3,60L331.2,2689z M240.8,2778.5l0.3-60l60,0.3l-0.3,60
	L240.8,2778.5z M150.3,2868.1l0.3-60l60,0.3l-0.3,60L150.3,2868.1z M330.3,2869l0.3-60l60,0.3l-0.3,60L330.3,2869z M239.9,2958.5
	l0.3-60l60,0.3l-0.3,60L239.9,2958.5z"/>
<path d="M137,2598l272.8,1.3c8.4,0,15.2-6.6,15.2-14.9l1.8-374.7l-303.1-1.5l-1.8,374.7C121.9,2591.2,128.6,2598,137,2598z
	 M153.6,2298.3l0.3-60l60.6,0.3l-0.3,60L153.6,2298.3z M335.5,2299.2l0.3-60l60.6,0.3l-0.3,60L335.5,2299.2z M244.1,2388.7l0.3-60
	l60.6,0.3l-0.3,60L244.1,2388.7z M152.7,2478.2l0.3-60l60.6,0.3l-0.3,60L152.7,2478.2z M334.6,2479.1l0.3-60l60.6,0.3l-0.3,60
	L334.6,2479.1z M243.2,2568.6l0.3-60l60.6,0.3l-0.3,60L243.2,2568.6z"/>
</svg>
