<?xml version="1.0" encoding="utf-8"?>
<!-- Generator: Adobe Illustrator 22.1.0, SVG Export Plug-In . SVG Version: 6.00 Build 0)  -->
<svg version="1.1" id="Layer_1" xmlns="http://www.w3.org/2000/svg" xmlns:xlink="http://www.w3.org/1999/xlink" x="0px" y="0px"
	 viewBox="0 0 512 512" style="enable-background:new 0 0 512 512;" xml:space="preserve">
<style type="text/css">
	.st0{fill:#43A838;}
	.st1{fill:#338727;}
</style>
<path class="st0" d="M10.4,343.7h472.8c2.9,0,5.3-2.4,5.2-5.3c-0.4-20.8-0.3-97.2,23.4-126.1c0.7-0.8-0.2-2-1.1-1.6
	c-11.3,4-44.9,17.6-53.2,41.8c-0.3,1-1.7,0.9-2-0.1l-13-48.6c-0.2-0.9-1.5-1-1.9-0.2l-14.6,29.9c-0.3,0.7-1.3,0.8-1.8,0.1
	l-27.8-39.7c-0.5-0.7-1.7-0.5-1.9,0.4l-12.9,64.8c-0.2,1.1-1.8,1.1-2,0l-23.3-92.9c-0.3-1-1.7-1.1-2,0l-19.6,70.5
	c-0.3,0.9-1.5,1-1.9,0.1l-22.6-50.7c-0.4-0.9-1.7-0.8-1.9,0.1L290,247c-0.3,1-1.8,1-2-0.1l-10.7-44.6c-0.2-1-1.6-1.1-2-0.2
	l-29.6,70.6c-0.4,0.8-1.6,0.8-1.9,0l-39.6-93.6c-0.5-1.1-2.1-0.7-2,0.5c1.5,18.1,3.6,67.7-14.8,90.4c-0.5,0.6-1.5,0.5-1.8-0.3
	l-19.5-53.9c-0.3-0.9-1.7-0.9-2,0.1l-16.2,56.8c-0.3,0.9-1.4,1-1.9,0.2c-5.8-10.3-30-56.7-18-98.3c0,0-31.6,41.5-32.7,72.1
	c0,1.1-1.6,1.4-2,0.3l-13.1-34.7c-0.4-0.9-1.7-0.9-2,0.1l-15.9,56.8c-0.3,1.1-1.9,1-2-0.2c-1.7-15.9-10.9-60.6-58.7-92.8
	c-0.8-0.5-1.9,0.2-1.6,1.2c4.6,14.4,23.8,81.9,5.3,159.8C4.5,340.6,7,343.7,10.4,343.7z"/>
<g>
	<path class="st1" d="M488.4,331.3c0.1,2.9-2.3,5.3-5.2,5.3H10.4c-3.4,0-5.8-3.1-5.1-6.4c2.1-8.8,3.7-17.5,4.9-26c0,0,0.1,0,0.1,0
		h472.8c2.9,0,4.9-0.2,4.9-0.2C488.1,311.3,488.2,321.7,488.4,331.3z"/>
	<circle class="st1" cx="96.6" cy="280" r="8.9"/>
	<circle class="st1" cx="121.5" cy="304.9" r="8.9"/>
	<circle class="st1" cx="418.5" cy="267.1" r="8.9"/>
</g>
<path class="st0" d="M-464.6,345.1H8.2c2.9,0,5.3-2.4,5.2-5.3C13,319,13.1,242.6,36.8,213.7c0.7-0.8-0.2-2-1.1-1.6
	c-11.3,4-44.9,17.6-53.2,41.8c-0.3,1-1.7,0.9-2-0.1l-13-48.6c-0.2-0.9-1.5-1-1.9-0.2l-14.6,29.9c-0.3,0.7-1.3,0.8-1.8,0.1
	l-27.8-39.7c-0.5-0.7-1.7-0.5-1.9,0.4l-12.9,64.8c-0.2,1.1-1.8,1.1-2,0l-23.3-92.9c-0.3-1-1.7-1.1-2,0l-19.6,70.5
	c-0.3,0.9-1.5,1-1.9,0.1l-22.6-50.7c-0.4-0.9-1.7-0.8-1.9,0.1l-18.1,60.7c-0.3,1-1.8,1-2-0.1l-10.7-44.6c-0.2-1-1.6-1.1-2-0.2
	l-29.6,70.6c-0.4,0.8-1.6,0.8-1.9,0l-39.6-93.6c-0.5-1.1-2.1-0.7-2,0.5c1.5,18.1,3.6,67.7-14.8,90.4c-0.5,0.6-1.5,0.5-1.8-0.3
	l-19.5-53.9c-0.3-0.9-1.7-0.9-2,0.1l-16.2,56.8c-0.3,0.9-1.4,1-1.9,0.2c-5.8-10.3-30-56.7-18-98.3c0,0-31.6,41.5-32.7,72.1
	c0,1.1-1.6,1.4-2,0.3l-13.1-34.7c-0.4-0.9-1.7-0.9-2,0.1l-15.9,56.8c-0.3,1.1-1.9,1-2-0.2c-1.7-15.9-10.9-60.6-58.7-92.8
	c-0.8-0.5-1.9,0.2-1.6,1.2c4.6,14.4,23.8,81.9,5.3,159.8C-470.5,342-468,345.1-464.6,345.1z"/>
<g>
	<path class="st1" d="M8.2,338.4c0.1,2.9-2.3,5.3-5.2,5.3h-472.8c-3.4,0-5.8-3.1-5.1-6.4c2.1-8.8,3.7-17.5,4.9-26c0,0,0.1,0,0.1,0H3
		c2.9,0,4.9-0.2,4.9-0.2C8,318.4,8,328.8,8.2,338.4z"/>
	<circle class="st1" cx="-383.6" cy="287.1" r="8.9"/>
	<circle class="st1" cx="-358.7" cy="312" r="8.9"/>
	<circle class="st1" cx="-61.7" cy="274.2" r="8.9"/>
</g>
<path class="st0" d="M959.4,345.1h472.8c2.9,0,5.3-2.4,5.2-5.3c-0.4-20.8-0.3-97.2,23.4-126.1c0.7-0.8-0.2-2-1.1-1.6
	c-11.3,4-44.9,17.6-53.2,41.8c-0.3,1-1.7,0.9-2-0.1l-13-48.6c-0.2-0.9-1.5-1-1.9-0.2l-14.6,29.9c-0.3,0.7-1.3,0.8-1.8,0.1
	l-27.8-39.7c-0.5-0.7-1.7-0.5-1.9,0.4l-12.9,64.8c-0.2,1.1-1.8,1.1-2,0l-23.3-92.9c-0.3-1-1.7-1.1-2,0l-19.6,70.5
	c-0.3,0.9-1.6,1-1.9,0.1l-22.6-50.7c-0.4-0.9-1.7-0.8-1.9,0.1l-18.1,60.7c-0.3,1-1.8,1-2-0.1l-10.7-44.6c-0.2-1-1.6-1.1-2-0.2
	l-29.6,70.6c-0.4,0.8-1.6,0.8-1.9,0l-39.6-93.6c-0.5-1.1-2.1-0.7-2,0.5c1.5,18.1,3.6,67.7-14.8,90.4c-0.5,0.6-1.5,0.5-1.8-0.3
	l-19.5-53.9c-0.3-0.9-1.7-0.9-2,0.1l-16.2,56.8c-0.3,0.9-1.4,1-1.9,0.2c-5.8-10.3-30-56.7-18-98.3c0,0-31.6,41.5-32.7,72.1
	c0,1.1-1.6,1.4-2,0.3l-13.1-34.7c-0.4-0.9-1.7-0.9-2,0.1l-15.9,56.8c-0.3,1.1-1.9,1-2-0.2c-1.7-15.9-10.9-60.6-58.7-92.8
	c-0.8-0.5-1.9,0.2-1.6,1.2c4.6,14.4,23.8,81.9,5.3,159.8C953.5,342,956,345.1,959.4,345.1z"/>
<g>
	<path class="st1" d="M1437.4,339.8c0.1,2.9-2.3,5.3-5.2,5.3H959.4c-3.4,0-5.8-3.1-5.1-6.4c2.1-8.8,3.7-17.5,4.9-26c0,0,0.1,0,0.1,0
		h472.8c2.9,0,4.9-0.2,4.9-0.2C1437.1,319.8,1437.2,330.2,1437.4,339.8z"/>
	<circle class="st1" cx="1045.6" cy="288.5" r="8.9"/>
	<circle class="st1" cx="1070.5" cy="313.4" r="8.9"/>
	<circle class="st1" cx="1367.5" cy="275.6" r="8.9"/>
</g>
<path class="st0" d="M484.4,345.1h472.8c2.9,0,5.3-2.4,5.2-5.3c-0.4-20.8-0.3-97.2,23.4-126.1c0.7-0.8-0.2-2-1.1-1.6
	c-11.3,4-44.9,17.6-53.2,41.8c-0.3,1-1.7,0.9-2-0.1l-13-48.6c-0.2-0.9-1.5-1-1.9-0.2l-14.6,29.9c-0.3,0.7-1.3,0.8-1.8,0.1
	l-27.8-39.7c-0.5-0.7-1.7-0.5-1.9,0.4l-12.9,64.8c-0.2,1.1-1.8,1.1-2,0l-23.3-92.9c-0.3-1-1.7-1.1-2,0l-19.6,70.5
	c-0.3,0.9-1.5,1-1.9,0.1l-22.6-50.7c-0.4-0.9-1.7-0.8-1.9,0.1L764,248.4c-0.3,1-1.8,1-2-0.1l-10.7-44.6c-0.2-1-1.6-1.1-2-0.2
	l-29.6,70.6c-0.4,0.8-1.6,0.8-1.9,0l-39.6-93.6c-0.5-1.1-2.1-0.7-2,0.5c1.5,18.1,3.6,67.7-14.8,90.4c-0.5,0.6-1.5,0.5-1.8-0.3
	l-19.5-53.9c-0.3-0.9-1.7-0.9-2,0.1l-16.2,56.8c-0.3,0.9-1.4,1-1.9,0.2c-5.8-10.3-30-56.7-18-98.3c0,0-31.6,41.5-32.7,72.1
	c0,1.1-1.6,1.4-2,0.3l-13.1-34.7c-0.4-0.9-1.7-0.9-2,0.1l-15.9,56.8c-0.3,1.1-1.9,1-2-0.2c-1.7-15.9-10.9-60.6-58.7-92.8
	c-0.8-0.5-1.9,0.2-1.6,1.2c4.6,14.4,23.8,81.9,5.3,159.8C478.5,342,481,345.1,484.4,345.1z"/>
<g>
	<path class="st1" d="M957.2,338.4c0.1,2.9-2.3,5.3-5.2,5.3H479.2c-3.4,0-5.8-3.1-5.1-6.4c2.1-8.8,3.7-17.5,4.9-26c0,0,0.1,0,0.1,0
		H952c2.9,0,4.9-0.2,4.9-0.2C957,318.4,957,328.8,957.2,338.4z"/>
	<circle class="st1" cx="565.4" cy="287.1" r="8.9"/>
	<circle class="st1" cx="590.3" cy="312" r="8.9"/>
	<circle class="st1" cx="887.3" cy="274.2" r="8.9"/>
</g>
<path class="st0" d="M1894.4,339h472.8c2.9,0,5.3-2.4,5.2-5.3c-0.4-20.8-0.3-97.2,23.4-126.1c0.7-0.8-0.2-2-1.1-1.6
	c-11.3,4-44.9,17.6-53.2,41.8c-0.3,1-1.7,0.9-2-0.1l-13-48.6c-0.2-0.9-1.5-1-1.9-0.2l-14.6,29.9c-0.3,0.7-1.3,0.8-1.8,0.1
	l-27.8-39.7c-0.5-0.7-1.7-0.5-1.9,0.4l-12.9,64.8c-0.2,1.1-1.8,1.1-2,0l-23.3-92.9c-0.3-1-1.7-1.1-2,0l-19.6,70.5
	c-0.3,0.9-1.5,1-1.9,0.1l-22.6-50.7c-0.4-0.9-1.7-0.8-1.9,0.1l-18.1,60.7c-0.3,1-1.8,1-2-0.1l-10.7-44.6c-0.2-1-1.6-1.1-2-0.2
	l-29.6,70.6c-0.4,0.8-1.6,0.8-1.9,0l-39.6-93.6c-0.5-1.1-2.1-0.7-2,0.5c1.5,18.1,3.6,67.7-14.8,90.4c-0.5,0.6-1.5,0.5-1.8-0.3
	l-19.5-53.9c-0.3-0.9-1.7-0.9-2,0.1l-16.2,56.8c-0.3,0.9-1.4,1-1.9,0.2c-5.8-10.3-30-56.7-18-98.3c0,0-31.6,41.5-32.7,72.1
	c0,1.1-1.6,1.4-2,0.3l-13.1-34.7c-0.4-0.9-1.7-0.9-2,0.1l-15.9,56.8c-0.3,1.1-1.9,1-2-0.2c-1.7-15.9-10.9-60.6-58.7-92.8
	c-0.8-0.5-1.9,0.2-1.6,1.2c4.6,14.4,23.8,81.9,5.3,159.8C1888.5,335.8,1891,339,1894.4,339z"/>
<g>
	<path class="st1" d="M2372.4,326.6c0.1,2.9-2.3,5.3-5.2,5.3h-472.8c-3.4,0-5.8-3.1-5.1-6.4c2.1-8.8,3.7-17.5,4.9-26
		c0,0,0.1,0,0.1,0h472.8c2.9,0,4.9-0.2,4.9-0.2C2372.1,306.6,2372.2,317,2372.4,326.6z"/>
	<circle class="st1" cx="1980.6" cy="275.3" r="8.9"/>
	<circle class="st1" cx="2005.4" cy="300.2" r="8.9"/>
	<circle class="st1" cx="2302.5" cy="262.4" r="8.9"/>
</g>
<path class="st0" d="M1419.4,340.4h472.8c2.9,0,5.3-2.4,5.2-5.3c-0.4-20.8-0.3-97.2,23.4-126.1c0.7-0.8-0.2-2-1.1-1.6
	c-11.3,4-44.9,17.6-53.2,41.8c-0.3,1-1.7,0.9-2-0.1l-13-48.6c-0.2-0.9-1.5-1-1.9-0.2l-14.6,29.9c-0.3,0.7-1.3,0.8-1.8,0.1
	l-27.8-39.7c-0.5-0.7-1.7-0.5-1.9,0.4l-12.9,64.8c-0.2,1.1-1.8,1.1-2,0l-23.3-92.9c-0.3-1-1.7-1.1-2,0l-19.6,70.5
	c-0.3,0.9-1.6,1-1.9,0.1l-22.6-50.7c-0.4-0.9-1.7-0.8-1.9,0.1l-18.1,60.7c-0.3,1-1.8,1-2-0.1l-10.7-44.6c-0.2-1-1.6-1.1-2-0.2
	l-29.6,70.6c-0.4,0.8-1.6,0.8-1.9,0l-39.6-93.6c-0.5-1.1-2.1-0.7-2,0.5c1.5,18.1,3.6,67.7-14.8,90.4c-0.5,0.6-1.5,0.5-1.8-0.3
	l-19.5-53.9c-0.3-0.9-1.7-0.9-2,0.1l-16.2,56.8c-0.3,0.9-1.4,1-1.9,0.2c-5.8-10.3-30-56.7-18-98.3c0,0-31.6,41.5-32.7,72.1
	c0,1.1-1.6,1.4-2,0.3l-13.1-34.7c-0.4-0.9-1.7-0.9-2,0.1l-15.9,56.8c-0.3,1.1-1.9,1-2-0.2c-1.7-15.9-10.9-60.6-58.7-92.8
	c-0.8-0.5-1.9,0.2-1.6,1.2c4.6,14.4,23.8,81.9,5.3,159.8C1413.5,337.2,1416,340.4,1419.4,340.4z"/>
<g>
	<path class="st1" d="M1892.2,333.7c0.1,2.9-2.3,5.3-5.2,5.3h-472.8c-3.4,0-5.8-3.1-5.1-6.4c2.1-8.8,3.7-17.5,4.9-26
		c0,0,0.1,0,0.1,0H1887c2.9,0,4.9-0.2,4.9-0.2C1891.9,313.7,1892,324.1,1892.2,333.7z"/>
	<circle class="st1" cx="1500.4" cy="282.4" r="8.9"/>
	<circle class="st1" cx="1525.3" cy="307.3" r="8.9"/>
	<circle class="st1" cx="1822.3" cy="269.5" r="8.9"/>
</g>
<path class="st0" d="M2843.4,340.4h472.8c2.9,0,5.3-2.4,5.2-5.3c-0.4-20.8-0.3-97.2,23.4-126.1c0.7-0.8-0.2-2-1.1-1.6
	c-11.3,4-44.9,17.6-53.2,41.8c-0.3,1-1.7,0.9-2-0.1l-13-48.6c-0.2-0.9-1.5-1-1.9-0.2l-14.6,29.9c-0.3,0.7-1.3,0.8-1.8,0.1
	l-27.8-39.7c-0.5-0.7-1.7-0.5-1.9,0.4l-12.9,64.8c-0.2,1.1-1.8,1.1-2,0l-23.3-92.9c-0.3-1-1.7-1.1-2,0l-19.6,70.5
	c-0.3,0.9-1.6,1-1.9,0.1l-22.6-50.7c-0.4-0.9-1.7-0.8-1.9,0.1l-18.1,60.7c-0.3,1-1.8,1-2-0.1l-10.7-44.6c-0.2-1-1.6-1.1-2-0.2
	l-29.6,70.6c-0.4,0.8-1.6,0.8-1.9,0l-39.6-93.6c-0.5-1.1-2.1-0.7-2,0.5c1.5,18.1,3.6,67.7-14.8,90.4c-0.5,0.6-1.5,0.5-1.8-0.3
	l-19.5-53.9c-0.3-0.9-1.7-0.9-2,0.1l-16.2,56.8c-0.3,0.9-1.4,1-1.9,0.2c-5.8-10.3-30-56.7-18-98.3c0,0-31.6,41.5-32.7,72.1
	c0,1.1-1.6,1.4-2,0.3l-13.1-34.7c-0.4-0.9-1.7-0.9-2,0.1l-15.9,56.8c-0.3,1.1-1.9,1-2-0.2c-1.7-15.9-10.9-60.6-58.7-92.8
	c-0.8-0.5-1.9,0.2-1.6,1.2c4.6,14.4,23.8,81.9,5.3,159.8C2837.5,337.2,2840,340.4,2843.4,340.4z"/>
<g>
	<path class="st1" d="M3321.4,335.1c0.1,2.9-2.3,5.3-5.2,5.3h-472.8c-3.4,0-5.8-3.1-5.1-6.4c2.1-8.8,3.7-17.5,4.9-26
		c0,0,0.1,0,0.1,0h472.8c2.9,0,4.9-0.2,4.9-0.2C3321.1,315.1,3321.2,325.5,3321.4,335.1z"/>
	<circle class="st1" cx="2929.6" cy="283.8" r="8.9"/>
	<circle class="st1" cx="2954.4" cy="308.7" r="8.9"/>
	<circle class="st1" cx="3251.5" cy="270.9" r="8.9"/>
</g>
<path class="st0" d="M2368.4,340.4h472.8c2.9,0,5.3-2.4,5.2-5.3c-0.4-20.8-0.3-97.2,23.4-126.1c0.7-0.8-0.2-2-1.1-1.6
	c-11.3,4-44.9,17.6-53.2,41.8c-0.3,1-1.7,0.9-2-0.1l-13-48.6c-0.2-0.9-1.5-1-1.9-0.2l-14.6,29.9c-0.3,0.7-1.3,0.8-1.8,0.1
	l-27.8-39.7c-0.5-0.7-1.7-0.5-1.9,0.4l-12.9,64.8c-0.2,1.1-1.8,1.1-2,0l-23.3-92.9c-0.3-1-1.7-1.1-2,0l-19.6,70.5
	c-0.3,0.9-1.6,1-1.9,0.1l-22.6-50.7c-0.4-0.9-1.7-0.8-1.9,0.1l-18.1,60.7c-0.3,1-1.8,1-2-0.1l-10.7-44.6c-0.2-1-1.6-1.1-2-0.2
	l-29.6,70.6c-0.4,0.8-1.6,0.8-1.9,0l-39.6-93.6c-0.5-1.1-2.1-0.7-2,0.5c1.5,18.1,3.6,67.7-14.8,90.4c-0.5,0.6-1.5,0.5-1.8-0.3
	l-19.5-53.9c-0.3-0.9-1.7-0.9-2,0.1l-16.2,56.8c-0.3,0.9-1.4,1-1.9,0.2c-5.8-10.3-30-56.7-18-98.3c0,0-31.6,41.5-32.7,72.1
	c0,1.1-1.6,1.4-2,0.3l-13.1-34.7c-0.4-0.9-1.7-0.9-2,0.1l-15.9,56.8c-0.3,1.1-1.9,1-2-0.2c-1.7-15.9-10.9-60.6-58.7-92.8
	c-0.8-0.5-1.9,0.2-1.6,1.2c4.6,14.4,23.8,81.9,5.3,159.8C2362.5,337.2,2365,340.4,2368.4,340.4z"/>
<g>
	<path class="st1" d="M2841.2,333.7c0.1,2.9-2.3,5.3-5.2,5.3h-472.8c-3.4,0-5.8-3.1-5.1-6.4c2.1-8.8,3.7-17.5,4.9-26
		c0,0,0.1,0,0.1,0H2836c2.9,0,4.9-0.2,4.9-0.2C2840.9,313.7,2841,324.1,2841.2,333.7z"/>
	<circle class="st1" cx="2449.4" cy="282.4" r="8.9"/>
	<circle class="st1" cx="2474.3" cy="307.3" r="8.9"/>
	<circle class="st1" cx="2771.3" cy="269.5" r="8.9"/>
</g>
</svg>
