<?xml version="1.0" encoding="utf-8"?>
<!-- Generator: Adobe Illustrator 22.1.0, SVG Export Plug-In . SVG Version: 6.00 Build 0)  -->
<svg version="1.1" id="Capa_1" xmlns="http://www.w3.org/2000/svg" xmlns:xlink="http://www.w3.org/1999/xlink" x="0px" y="0px"
	 viewBox="0 0 512 380" style="enable-background:new 0 0 512 380;" xml:space="preserve">
<style type="text/css">
	.st0{fill:#41BF61;}
	.st1{fill:#F7F5F6;}
	.st2{font-family:'ArialMT';}
	.st3{font-size:100px;}
</style>
<title>horse1</title>
<path class="st0" d="M480.1,79.6c-1.4-1.4-2.3-3.2-2.5-5.2c-0.8-10.8-4.7-19.7-13.4-26.6c-1.6-1.3-1.6-5.2-1.6-7.9
	c-0.1-10.5-0.1-21-0.1-32.9c0-3-1.5-3.5-3.5-1.3c-2,2.4-3.9,4.6-5.8,6.9c-1.9,2.3-4.1,1.8-4.8-1.1c-0.2-0.6-0.3-1.2-0.5-1.9
	c-0.8-2.9-1.9-3.9-2.5-2.2c-0.6,1.7-2.5,1.6-4.3,0c-1.8-1.7-2.9-1.5-2.5,0.4c0.4,1.9,0.4,3.6,0,3.7s-1.4-1.4-2.2-3.5
	c-0.5-1.2-0.9-2.5-1.1-3.8c-0.8-5.1-3.1-5.3-6.7-2.5c-0.7,0.5-1.2,1.1-1.9,1.7c-4.4,3.8-8.4,6.4-15.4,5.1
	c-8.4-1.6-17.1-1.5-25.7-1.7c-3-0.1-5.5,0.5-5.6,1.4c-0.1,0.9,1.3,2,3.2,2.6c1.9,0.5,3.5,2.4,3.5,2.9s-2.4,1.9-5.4,1.9h-1.5
	c-3,0-5.1-0.9-4.7-0.5c0.2,0.2,0.4-0.1,0.6,0.1c0.4,0.3,0.7,0.7,1,1.1c0.5,0.8-0.4,2.5-2.1,4.1s-1.3,2.9,0.8,3.1
	c2.1,0.2,3.8,0.8,3.9,1.4c0,0.6-2.3,1.2-5.3,1.4c-6.5,0.4-12.9,0.8-19.4,1.2c-3,0.2-5.4,0.7-5.4,1.1s2.3,1.2,5.2,1.9
	c1.6,0.3,3.3,0.7,4.9,1c2.9,0.6,5.2,1.7,5.2,2.3c0,0.7-2.5,1.2-5.4,1.7c-6,1-12,3.4-18.2,4.4c-2.9,0.5-4.1,2.5-2.4,5
	c0.4,0.6,0.8,1.2,1.2,1.8c1.7,2.5,0.3,5-2.7,4.6c-3.4-0.4-7.6-1.2-11-1.5c-3-0.3-3.1,1.3-1.1,3.4c10.1,10.6,6.8,34.4-13.6,34.4
	c-22.8,0-28.2,13.4-23.5,10.1c2.3-1.6,4.7-0.5,6.7,1c2,1.7,2.2,4.7,0.4,6.7c-0.2,0.3-0.5,0.5-0.8,0.7c-26.3,17.2-115.5-6.3-138-12.7
	c-3.4-0.9-7-1.4-10.5-1.4c-12.9,0.6-24.9,4.3-35.4,12.4c-4.8,3.7-8.2,4.3-12.5-0.3c-1.2-1.3-2.6-2.4-4.2-3.3
	c-2.5-1.6-4.4-2.3-4.2-1.7c0.1,0.7-2.2,0.7-5.1,0.5c-10.8-1-21.9-2-33-2.9c-0.8,0-1.7,0.1-2.4,0.4c-1.3,0.5-1.5,1.6-0.4,2.6
	c1.1,1-0.4,2.2-3.4,2.7c-6.5,1.1-13,2.3-19.6,3.5c-2.9,0.5-5.3,1.2-5.2,1.5c0,0.3,1.9,0.6,4.1,0.6s2,1.2-0.6,2.6
	c-5,2.8-9.5,5.4-13.9,7.9c-2.6,1.5-4.1,3-3.4,3.4s0.5,3-0.4,5.8c-1.6,4.8-3.3,9.5-4.9,14.3c-1,2.8-1.5,5.2-1.2,5.3s1.6-1.7,2.9-4.1
	c1.3-2.4,1.8-2,1.5,0.9c-1.9,17,6.2,30.6,16.8,42.6c4.9,5.5,13.9,7.1,19.8,12c3,2.5,3.4,8.2,4.6,12.6c0.2,0.8-1.4,2.5-2.5,3.1
	c-5.5,3.3-11,6.6-16.4,9.7c-2.6,1.5-2.3,3.3,0.6,3.9c3.1,0.7,6.2,1.5,9.4,2.2c2.9,0.7,5.2,1.6,5.1,2.1c-0.1,0.5-2.1,1.2-4.6,1.6
	c-2.5,0.4-2.2,1.5,0.6,2.5c17.7,6.6,28.2,10.1,48.5-21.6c1.6-2.5,2.3-2.2,1.7,0.7c-0.3,1.3-0.5,2.4-0.8,3.5
	c-0.6,2.9-0.7,5.3-0.2,5.5c0.5,0.1,1.4-2.1,2.1-5c0.8-3.4,1.5-6.8,2.3-10.3c0.7-2.9,2.6-3.3,4.3-0.9c5.9,8.2,11.8,16.1,17.3,24.3
	c4.6,6.8,3.4,14.3,1.1,21.8c-4.2,13.2-3.4,15.8,7.9,23.7c12.5,8.8,25.4,16.9,37.8,25.7c3.4,2.7,6.2,6.1,8.2,9.9
	c5.6,10.4,10.4,21.4,16,31.8c6.4,11.9,22.5,14.1,31.7,6c2.2-2,3.7-1.7,4.2,1.2c3.2,18.1,13.3,25.9,30.7,23.9
	c8.1-0.9,10-3.8,6.4-11.1c-7-14.1-15-27.3-29.2-35.7c-13.2-7.9-22-19.3-27-34c-3.9-11.5,1.7-21.2,5.6-31.2c0.4-1.1,3.8-1.6,5.7-1.4
	c18.2,2.2,36.4,4.6,54.6,7.1c1.6,0.2,3.1,0.8,4.3,1.9c15.5,15.2,31,30.4,48.8,43.1c4.8,3.5,9.1,7.7,13.6,12c2.1,2.1,1.8,4.9-0.8,6.3
	c-10.4,5.4-14.1,4.3-23.7-3.4c-8.3-6.7-29.7-2.7-34.3,7c-1,2,0.4,7.2,2.2,8.2c7.5,4.1,15.4,7.4,23.3,10.7c3,1.3,6.5,1.7,9.5,3.1
	c11.9,5.9,16.2,5.3,26.3-3.2c3.8-3.1,8-6.4,12.6-7.7c12.8-3.6,18.5-15.1,11.1-26.1c-8.2-12.2-17.6-23.7-26.4-35.5
	c-2-2.7-3.9-5.4-6.3-8.8c-1.7-2.4-0.7-4.3,2.3-4.6c8.6-0.7,15.7-2.5,23,2.2c2.8,1.8,6.8,2.2,10.3,2.6c10.5,1.2,20.9,2.3,31.5,3.2
	c8,0.7,16.1,1.2,24.1,1.2c8.8,0,11.5,1.6,11.1,10.5c-0.5,10.7-1.7,21.4-3.6,32c-2,10.9-9.7,16.2-20.4,17.8
	c-14,2.1-22.3,24.3-13,35.1c1.5,1.7,6.4,2.1,8.7,1c10.5-5,21.3-9.6,27.9-20.3c1.8-2.5,4.4-4.3,7.4-5c7.5-1.4,10-6.2,10.6-13
	c0.7-7.8,1.1-15.6,2.3-23.3c1.2-7.4,2.5-14.9,4.9-21.9c5.2-14.7,2.2-24.7-11.4-32.5c-5.3-3-11.3-4.7-16.7-7.5
	c-8-4.3-15.7-9.2-23.6-13.7c-5.9-3.4-6-8.6-2.9-13.4c5.3-8.4,4.2-17.5,5-26.6c1.8-21,4.5-42,7.2-62.9c0.4-2.1,1-4.2,2-6.1
	c1.4-2.7,4.5-4.1,7.5-3.5c7.6,1.9,14.8,3.4,21.2,6.4c9.6,4.5,19.7,9.4,26.9,16.8c11.7,12,20.3,11.6,32.2,1
	c13.7-12.2,13.3-14.3,4.5-30.7C497.6,108.5,492.6,91.9,480.1,79.6z M87.8,126.5c-3.4,5.7-6.3,10.7-9.3,15.8c-1.5,2.6-4.1,2.6-5-0.2
	c-2-6.5,0-13.2,5.7-18.2c1.3-1.1,3.4-1.3,6-1.5C88.1,122.2,89.3,124,87.8,126.5L87.8,126.5z M166,281.8c-1.8,2.2-5,2.6-7.2,0.8
	c-0.1-0.1-0.2-0.2-0.3-0.3c-1.7-1.5-3.5-3-5.3-4.5c-11.1-8.8-15.4-18.5-7-32.1c3-5,4.4-11,6.1-17.3c0.8-2.9,3.6-3.9,5.8-1.9
	C173.9,240.4,177.2,266,166,281.8L166,281.8z"/>
<rect x="199" y="133.3" class="st1" width="105.4" height="105.4"/>
<text transform="matrix(1 0 0 1 224.9943 220.0146)" class="st2 st3">3</text>
</svg>
